# xmcd
#
# Track frame offsets: 
#        150
#        21364
#        42245
#        73985
#        96854
#        119431
#        142955
#        168571
#        198402
#
# Disc length: 3048 seconds
#
# Revision: 0
# Processed by: cddbd v1.5.2PL0 Copyright (c) Steve Scherf et al.
# Submitted via: ExactAudioCopy v1.0b3
#
DISCID=830be609
DTITLE=Various Artist - Trieu Doa Hong Cho Nguoi Phu Nu VN CD2
DYEAR=1900
DGENRE=
TTITLE0=Viet Dzung - Tinh ca cho Nguyen Thi Sai Gon
TTITLE1=Thai Hang - Hoa mau don
TTITLE2=Diem Lien - Ngay mai chi toi lay chong
TTITLE3=Bich Thuan - Gio hong
TTITLE4=Nhat Khanh - Nam Xuong tieng khoc dem mua
TTITLE5=Bich Thuan, Mai Linh, Bang Tam - Mot doi ao me ao em
TTITLE6=Nhu Mai, Thuc Oanh, Khanh Ngan, Bang Tam - Nguoi con gai Viet 
TTITLE6=Nam bay gio
TTITLE7=Thai Chau - Me toi
TTITLE8=hop ca - Trieu doa hong cho nguoi phu nu VN
EXTD=
EXTT0=
EXTT1=
EXTT2=
EXTT3=
EXTT4=
EXTT5=
EXTT6=
EXTT7=
EXTT8=
PLAYORDER=
